<?xml version="1.0" encoding="utf-8"?>
<!-- Generator: Adobe Illustrator 22.0.1, SVG Export Plug-In . SVG Version: 6.00 Build 0)  -->
<svg version="1.1" id="Слой_3" xmlns="http://www.w3.org/2000/svg" xmlns:xlink="http://www.w3.org/1999/xlink" x="0px" y="0px"
	 viewBox="0 0 3543.3 3543.3" style="enable-background:new 0 0 3543.3 3543.3;" xml:space="preserve">
<style type="text/css">
	.st0{fill:#FFFFFF;}
	.st1{stroke:#000000;stroke-width:9;stroke-miterlimit:10;}
</style>
<rect x="0" y="0" class="st0" width="3543.3" height="3543.3"/>
<g>
	<path d="M1054.7,1447.3c0,46.9-9.2,88.3-27.5,124.4s-43.8,66-76.2,89.6c-32,23.6-67.2,41-105.6,51.9s-79.1,16.5-122.1,16.5H622.7
		v271.9c0,14.8,2.4,27.7,7.3,38.9c4.8,11.2,14.8,19.7,30,25.6c7.6,3,20.9,5.7,40.1,8.2s36.7,4,52.7,4.4v45h-385v-45
		c10.1-0.8,24.7-2.3,43.9-4.4s32.5-4.9,40.1-8.2c12.6-5.5,21.8-13.5,27.5-24c5.7-10.5,8.5-24,8.5-40.5v-647.9
		c0-14.8-2.1-28-6.3-39.9c-4.2-11.8-14.2-20.7-29.8-26.6c-16.1-5.5-32-9.4-47.9-11.7c-15.9-2.3-29.5-3.9-40.9-4.8v-45H773
		c83.6,0,151.4,20.2,203.5,60.5S1054.7,1380.2,1054.7,1447.3z M862.3,1600.6c14.3-20.3,23.8-41.3,28.5-63c4.6-21.7,7-41.3,7-58.6
		c0-24-2.8-48.5-8.5-73.4s-15.5-46.6-29.4-65.2c-14.8-19.8-34.1-35.3-58.2-46.2c-24-11-54-16.5-89.8-16.5h-89.1v397h64.5
		c45.5,0,82.5-7.1,111-21.2C826.6,1639.3,848,1621.7,862.3,1600.6z"/>
	<path d="M2239.1,2123.7h-397v-45c14.3-0.4,32.8-1.9,55.4-4.4s38.1-6.1,46.6-10.8c13.1-8,22.7-17.2,28.8-27.5s9.2-23.3,9.2-38.9
		v-653h-9.5L1666,2108.7h-31.7l-292-780.5h-8.2v536c0,51.9,3.3,91.3,9.8,118.3c6.5,27,16.5,46.4,30,58.2
		c9.3,8.9,28.4,17.3,57.4,25.3s48,12.2,56.8,12.6v45h-362v-45c19-1.7,39-4.8,59.9-9.5s37.1-11.6,48.5-20.9
		c14.8-11.8,24.9-29.9,30.4-54.4c5.5-24.5,8.2-65.4,8.2-122.8v-459.4c0-26.6-3.2-48.3-9.5-65.2c-6.3-16.9-15.4-30.6-27.2-41.1
		c-13.1-11.4-29.1-19.8-48.1-25.3s-37.7-8.7-56.3-9.5v-45h305.7l257.1,673l220.3-562.8c8-20.7,14.9-42.3,20.6-64.9
		c5.7-22.6,8.8-37.7,9.2-45.3h293.2v45c-11.8,0.4-26.9,2.3-45.2,5.7s-31.7,6.5-40.1,9.5c-14.3,5.1-24,13.5-29.1,25.3
		s-7.6,24.7-7.6,38.6V1997c0,14.8,2.5,27.2,7.6,37.3s14.7,19,29,26.6c7.6,4.2,21,8.1,40.4,11.7s34.7,5.6,46,6V2123.7z"/>
	<path d="M3228.8,1764.7c-10.1,1.3-23.7,3.3-40.8,6s-30.9,6.7-41.4,11.8c-12.7,6.4-21.6,15.4-26.9,27c-5.3,11.6-7.9,25.3-7.9,40.9
		v69.9c0,50.8,0.3,85.1,1,102.9c0.6,17.8,1.4,32.4,2.2,43.8c-56.2,25.4-112.1,44.9-167.8,58.4c-55.7,13.5-110.4,20.3-164,20.3
		c-57.4,0-112.7-10.8-165.9-32.3c-53.2-21.5-99.6-52.2-139.3-91.9c-40.1-40.1-72-89-95.6-146.4s-35.5-121.7-35.5-192.7
		c0-68.5,11.3-131.9,33.9-190.5s54.5-109.3,95.9-152.4c40.1-42.3,87.9-75.1,143.4-98.6s114.9-35.2,178.2-35.2
		c50.6,0,94.7,6.2,132.3,18.5c37.6,12.4,70.7,27.2,99.4,44.5l26-43h51l6,314h-52c-8.9-34.6-19.9-68.7-33-102.3
		c-13.1-33.6-30-63.7-50.8-90.3c-20.7-26.6-46-47.8-75.8-63.7s-65.5-23.8-106.9-23.8c-45.3,0-85.7,9.2-121.2,27.6
		c-35.5,18.4-66.4,45.8-92.7,82.1c-25.8,35.1-45.7,78.9-59.7,131.3c-14,52.4-20.9,111-20.9,175.6c0,57.1,6.9,110.9,20.6,161.4
		s33.7,94.2,59.9,130.9c26.2,37.6,59,67.2,98.3,88.8c39.3,21.6,83.9,32.3,133.8,32.3c37.2,0,71.1-5.7,101.8-17.2
		c30.6-11.4,52.3-23.5,65-36.3c3.4-22,5.2-44.3,5.4-66.8s0.3-41.5,0.3-57.3v-49.6c0-17.8-2.4-33.6-7.3-47.4
		c-4.9-13.8-14.9-23.8-30.1-30.2c-13.9-6.4-32.8-11.1-56.7-14.3s-42.5-5.2-56-6v-45h394V1764.7z"/>
</g>
<g>
	<path d="M847.6,2283.7c0,6.7-1.3,12.6-3.9,17.8c-2.6,5.2-6.3,9.4-10.9,12.8c-4.6,3.4-9.6,5.9-15.1,7.4c-5.5,1.6-11.3,2.4-17.5,2.4
		h-14.4v38.9c0,2.1,0.3,4,1,5.6c0.7,1.6,2.1,2.8,4.3,3.7c1.1,0.4,3,0.8,5.7,1.2c2.7,0.4,5.3,0.6,7.6,0.6v6.4h-55.1v-6.4
		c1.4-0.1,3.5-0.3,6.3-0.6c2.7-0.3,4.7-0.7,5.7-1.2c1.8-0.8,3.1-1.9,3.9-3.4c0.8-1.5,1.2-3.4,1.2-5.8v-92.7c0-2.1-0.3-4-0.9-5.7
		c-0.6-1.7-2-3-4.3-3.8c-2.3-0.8-4.6-1.3-6.8-1.7c-2.3-0.3-4.2-0.6-5.8-0.7v-6.4h58.6c11.9,0,21.6,2.9,29.1,8.6
		C843.9,2266.5,847.6,2274.1,847.6,2283.7z M820.1,2305.6c2-2.9,3.4-5.9,4.1-9c0.7-3.1,1-5.9,1-8.4c0-3.4-0.4-6.9-1.2-10.5
		c-0.8-3.6-2.2-6.7-4.2-9.3c-2.1-2.8-4.9-5-8.3-6.6c-3.4-1.6-7.7-2.4-12.9-2.4h-12.8v56.7h9.2c6.5,0,11.8-1,15.9-3
		C815,2311.2,818,2308.7,820.1,2305.6z"/>
	<path d="M987.4,2380.5h-34.6c-7.7-12-14.6-22.4-20.8-31.1c-6.2-8.7-12.9-17.8-20.1-27.1h-13.2v40.7c0,2.1,0.3,4,1,5.6
		c0.7,1.6,2.1,2.8,4.3,3.7c1.1,0.4,3,0.8,5.7,1.2c2.7,0.4,5,0.6,6.9,0.6v6.4h-54.3v-6.4c1.4-0.1,3.5-0.3,6.3-0.6
		c2.7-0.3,4.7-0.7,5.7-1.2c1.8-0.8,3.1-1.9,3.9-3.4c0.8-1.5,1.2-3.4,1.2-5.8v-92.9c0-2.1-0.3-4-0.9-5.6c-0.6-1.6-2-2.9-4.3-3.7
		c-1.5-0.5-3.5-1-5.9-1.5c-2.4-0.5-4.5-0.7-6.2-0.9v-6.4h59.3c5.4,0,10.5,0.6,15.3,1.7c4.8,1.1,9.1,2.9,12.9,5.4
		c3.7,2.4,6.7,5.6,9,9.5c2.2,3.9,3.3,8.6,3.3,14.1c0,4.9-0.8,9.3-2.3,13.1c-1.5,3.8-3.7,7.1-6.7,9.9c-2.7,2.6-6,4.8-9.8,6.7
		c-3.8,1.9-8,3.5-12.6,4.8c6.3,8.4,11.6,15.4,15.8,21.2c4.2,5.7,9.3,12.7,15.4,20.9c2.7,3.6,5.1,6.3,7.2,8c2.1,1.7,4.3,3.1,6.4,4.2
		c1.6,0.8,3.5,1.4,5.9,1.8c2.4,0.4,4.3,0.7,5.9,0.7V2380.5z M939.8,2284.8c0-7.8-2.2-13.9-6.7-18.5c-4.5-4.5-10.8-6.8-18.9-6.8
		h-15.4v55h11.9c8.3,0,15.3-2.7,20.8-8C937,2301.2,939.8,2293.9,939.8,2284.8z"/>
	<path d="M1096.1,2267.3c5.7,5.9,10.1,13,13.3,21.4c3.2,8.4,4.8,17.6,4.8,27.7c0,10.2-1.6,19.5-4.9,27.8
		c-3.3,8.3-7.8,15.4-13.6,21.3c-5.6,5.8-12.1,10.3-19.5,13.4c-7.4,3.1-15.3,4.7-23.7,4.7c-8.9,0-17.2-1.7-24.8-5
		c-7.6-3.3-14.1-8-19.5-14c-5.4-5.9-9.7-13-12.8-21.3c-3.1-8.4-4.7-17.3-4.7-26.8c0-10.4,1.6-19.7,4.9-27.9
		c3.3-8.2,7.8-15.2,13.5-21.2c5.7-5.9,12.3-10.4,19.8-13.6c7.5-3.1,15.4-4.7,23.6-4.7c8.5,0,16.5,1.6,24.1,4.8
		C1084.1,2257,1090.6,2261.5,1096.1,2267.3z M1082.6,2358.3c3.4-5.5,5.8-11.7,7.4-18.6c1.5-6.9,2.3-14.7,2.3-23.3
		c0-8.8-0.9-16.9-2.6-24.3c-1.7-7.4-4.2-13.6-7.6-18.8c-3.3-5.1-7.5-9.1-12.5-12c-5-2.9-10.7-4.3-17.2-4.3c-7.2,0-13.4,1.7-18.5,5
		c-5.1,3.3-9.2,7.8-12.4,13.3c-3,5.3-5.3,11.5-6.7,18.6c-1.5,7.1-2.2,14.6-2.2,22.4c0,8.7,0.8,16.5,2.4,23.5c1.6,7,4,13.2,7.4,18.6
		c3.3,5.3,7.4,9.5,12.3,12.4c4.9,3,10.9,4.5,17.7,4.5c6.5,0,12.3-1.5,17.5-4.5C1075.1,2368,1079.4,2363.7,1082.6,2358.3z"/>
	<path d="M1284.9,2380.5h-56.7v-6.4c2.1-0.1,4.7-0.3,7.9-0.6c3.2-0.4,5.4-0.9,6.7-1.5c1.9-1.1,3.2-2.5,4.1-3.9
		c0.9-1.5,1.3-3.3,1.3-5.6V2269h-1.4l-43.8,109.4h-4.5l-41.7-111.7h-1.2v76.7c0,7.4,0.5,13.1,1.4,16.9c0.9,3.9,2.4,6.6,4.3,8.3
		c1.3,1.3,4.1,2.5,8.2,3.6c4.2,1.1,6.9,1.8,8.1,1.8v6.4h-51.9v-6.4c2.7-0.2,5.6-0.7,8.6-1.4c3-0.7,5.3-1.7,6.9-3
		c2.1-1.7,3.6-4.3,4.3-7.8c0.8-3.5,1.2-9.4,1.2-17.6v-65.7c0-3.8-0.5-6.9-1.4-9.3s-2.2-4.4-3.9-5.9c-1.9-1.6-4.2-2.8-6.9-3.6
		c-2.7-0.8-5.4-1.2-8.1-1.4v-6.4h43.8l36.8,96.4l31.4-80.6c1.1-3,2.1-6.1,2.9-9.3c0.8-3.2,1.3-5.4,1.3-6.5h41.9v6.4
		c-1.7,0.1-3.8,0.3-6.5,0.8c-2.6,0.5-4.5,0.9-5.7,1.4c-2.1,0.7-3.4,1.9-4.2,3.6c-0.7,1.7-1.1,3.5-1.1,5.5v92.6
		c0,2.1,0.4,3.9,1.1,5.3c0.7,1.4,2.1,2.7,4.2,3.8c1.1,0.6,3,1.2,5.8,1.7c2.8,0.5,5,0.8,6.6,0.9V2380.5z"/>
	<path d="M1405.9,2267.3c5.7,5.9,10.1,13,13.3,21.4c3.2,8.4,4.8,17.6,4.8,27.7c0,10.2-1.6,19.5-4.9,27.8
		c-3.3,8.3-7.8,15.4-13.6,21.3c-5.6,5.8-12.1,10.3-19.5,13.4c-7.4,3.1-15.3,4.7-23.7,4.7c-8.9,0-17.2-1.7-24.8-5
		c-7.6-3.3-14.1-8-19.5-14c-5.4-5.9-9.7-13-12.8-21.3c-3.1-8.4-4.7-17.3-4.7-26.8c0-10.4,1.6-19.7,4.9-27.9
		c3.3-8.2,7.8-15.2,13.5-21.2c5.7-5.9,12.3-10.4,19.8-13.6c7.5-3.1,15.4-4.7,23.6-4.7c8.5,0,16.5,1.6,24.1,4.8
		C1393.9,2257,1400.4,2261.5,1405.9,2267.3z M1392.4,2358.3c3.4-5.5,5.8-11.7,7.4-18.6c1.5-6.9,2.3-14.7,2.3-23.3
		c0-8.8-0.9-16.9-2.6-24.3c-1.7-7.4-4.2-13.6-7.6-18.8c-3.3-5.1-7.5-9.1-12.5-12c-5-2.9-10.7-4.3-17.2-4.3c-7.2,0-13.4,1.7-18.5,5
		c-5.1,3.3-9.2,7.8-12.4,13.3c-3,5.3-5.3,11.5-6.7,18.6c-1.5,7.1-2.2,14.6-2.2,22.4c0,8.7,0.8,16.5,2.4,23.5c1.6,7,4,13.2,7.4,18.6
		c3.3,5.3,7.4,9.5,12.3,12.4c4.9,3,10.9,4.5,17.7,4.5c6.5,0,12.3-1.5,17.5-4.5C1384.9,2368,1389.2,2363.7,1392.4,2358.3z"/>
	<path d="M1639.4,2380.5h-56.7v-6.4c2.1-0.1,4.7-0.3,7.9-0.6c3.2-0.4,5.4-0.9,6.7-1.5c1.9-1.1,3.2-2.5,4.1-3.9
		c0.9-1.5,1.3-3.3,1.3-5.6V2269h-1.4l-43.8,109.4h-4.5l-41.7-111.7h-1.2v76.7c0,7.4,0.5,13.1,1.4,16.9c0.9,3.9,2.4,6.6,4.3,8.3
		c1.3,1.3,4.1,2.5,8.2,3.6c4.2,1.1,6.9,1.8,8.1,1.8v6.4h-51.9v-6.4c2.7-0.2,5.6-0.7,8.6-1.4c3-0.7,5.3-1.7,6.9-3
		c2.1-1.7,3.6-4.3,4.3-7.8c0.8-3.5,1.2-9.4,1.2-17.6v-65.7c0-3.8-0.5-6.9-1.4-9.3s-2.2-4.4-3.9-5.9c-1.9-1.6-4.2-2.8-6.9-3.6
		c-2.7-0.8-5.4-1.2-8.1-1.4v-6.4h43.8l36.8,96.4l31.4-80.6c1.1-3,2.1-6.1,2.9-9.3c0.8-3.2,1.3-5.4,1.3-6.5h41.9v6.4
		c-1.7,0.1-3.8,0.3-6.5,0.8c-2.6,0.5-4.5,0.9-5.7,1.4c-2.1,0.7-3.4,1.9-4.2,3.6c-0.7,1.7-1.1,3.5-1.1,5.5v92.6
		c0,2.1,0.4,3.9,1.1,5.3c0.7,1.4,2.1,2.7,4.2,3.8c1.1,0.6,3,1.2,5.8,1.7c2.8,0.5,5,0.8,6.6,0.9V2380.5z"/>
	<path d="M1760.4,2267.3c5.7,5.9,10.1,13,13.3,21.4c3.2,8.4,4.8,17.6,4.8,27.7c0,10.2-1.6,19.5-4.9,27.8
		c-3.3,8.3-7.8,15.4-13.6,21.3c-5.6,5.8-12.1,10.3-19.5,13.4c-7.4,3.1-15.3,4.7-23.7,4.7c-8.9,0-17.2-1.7-24.8-5
		c-7.6-3.3-14.1-8-19.5-14c-5.4-5.9-9.7-13-12.8-21.3c-3.1-8.4-4.7-17.3-4.7-26.8c0-10.4,1.6-19.7,4.9-27.9
		c3.3-8.2,7.8-15.2,13.5-21.2c5.7-5.9,12.3-10.4,19.8-13.6c7.5-3.1,15.4-4.7,23.6-4.7c8.5,0,16.5,1.6,24.1,4.8
		C1748.4,2257,1754.9,2261.5,1760.4,2267.3z M1746.9,2358.3c3.4-5.5,5.8-11.7,7.4-18.6c1.5-6.9,2.3-14.7,2.3-23.3
		c0-8.8-0.9-16.9-2.6-24.3c-1.7-7.4-4.2-13.6-7.6-18.8c-3.3-5.1-7.5-9.1-12.5-12c-5-2.9-10.7-4.3-17.2-4.3c-7.2,0-13.4,1.7-18.5,5
		c-5.1,3.3-9.2,7.8-12.4,13.3c-3,5.3-5.3,11.5-6.7,18.6c-1.5,7.1-2.2,14.6-2.2,22.4c0,8.7,0.8,16.5,2.4,23.5c1.6,7,4,13.2,7.4,18.6
		c3.3,5.3,7.4,9.5,12.3,12.4c4.9,3,10.9,4.5,17.7,4.5c6.5,0,12.3-1.5,17.5-4.5C1739.4,2368,1743.6,2363.7,1746.9,2358.3z"/>
	<path d="M1917.6,2317c0,10.9-2.1,20.4-6.2,28.4c-4.1,8-9.4,14.6-16,19.7c-6.6,5.1-14.1,9-22.4,11.5c-8.3,2.5-16.8,3.8-25.6,3.8
		h-53.2v-6.4c1.8,0,4-0.2,6.8-0.5c2.8-0.3,4.7-0.7,5.6-1.1c1.8-0.8,3.1-1.9,3.9-3.5s1.2-3.4,1.2-5.6v-92.7c0-2.1-0.3-3.9-1-5.5
		c-0.7-1.6-2.1-2.9-4.1-3.9c-1.9-0.9-3.9-1.6-6.1-2c-2.2-0.4-4-0.7-5.6-0.8v-6.4h56.1c7.7,0,15.3,1.2,22.8,3.6
		c7.5,2.4,14,5.6,19.5,9.6c7.5,5.4,13.5,12.4,17.7,21.1C1915.5,2295,1917.6,2305.3,1917.6,2317z M1895.4,2317
		c0-8.6-1.1-16.4-3.4-23.4c-2.3-7-5.6-13-10-18.2c-4.2-4.9-9.3-8.8-15.3-11.7s-12.8-4.3-20.2-4.3c-2.5,0-5.3,0-8.4,0.1
		c-3.1,0.1-5.4,0.2-6.9,0.2v98.7c0,5.5,1.6,9.3,4.8,11.4c3.2,2.1,8.1,3.2,14.8,3.2c7.7,0,14.4-1.4,20.1-4.1
		c5.7-2.7,10.4-6.5,13.9-11.3c3.7-5.1,6.5-10.9,8.2-17.6C1894.6,2333.4,1895.4,2325.7,1895.4,2317z"/>
	<path d="M2041.4,2342.6l-2.4,37.8h-106.6v-6.4c1.8-0.1,4.2-0.4,7.2-0.8c3-0.4,5-0.8,5.9-1.2c1.9-0.9,3.3-2.1,4-3.5
		c0.8-1.4,1.1-3.3,1.1-5.5v-92.3c0-2-0.3-3.8-1-5.3c-0.7-1.5-2.1-2.8-4.2-3.8c-1.6-0.8-3.8-1.5-6.6-2.1c-2.7-0.6-4.9-1-6.6-1.1v-6.4
		h99.4v31h-6.8c-1.2-4.6-3.8-9.5-7.8-14.6c-4-5.2-7.8-8-11.4-8.5c-1.9-0.2-4.1-0.4-6.7-0.5c-2.6-0.1-5.6-0.2-8.9-0.2h-20.2v51h14.5
		c4.6,0,8-0.4,10.2-1.3c2.1-0.9,4-2.3,5.7-4.4c1.3-1.7,2.5-4.1,3.4-7c0.9-2.9,1.6-5.7,1.9-8.3h6.8v50.3h-6.8c-0.2-2.9-0.9-6-1.9-9.2
		c-1.1-3.2-2.2-5.6-3.3-7c-1.9-2.4-4-3.9-6.4-4.6c-2.4-0.7-5.5-1.1-9.5-1.1h-14.5v38.5c0,3.9,0.3,6.9,0.8,9.1s1.6,3.9,3.2,5.1
		c1.6,1.1,3.7,1.9,6.4,2.2c2.7,0.3,6.6,0.5,11.6,0.5c2,0,4.6,0,7.9,0c3.3,0,6-0.1,8.2-0.4c2.3-0.2,4.7-0.7,7.1-1.3s4.2-1.5,5.2-2.6
		c2.8-2.9,5.7-7.3,8.7-13.2c3-5.9,5-10.2,5.8-13H2041.4z"/>
	<path d="M2157.6,2342.3l-2.7,38.2h-100.4v-6.4c1.4-0.1,3.5-0.3,6.3-0.6c2.7-0.3,4.7-0.7,5.7-1.2c1.8-0.8,3.1-1.9,3.9-3.4
		c0.8-1.5,1.2-3.4,1.2-5.8v-92c0-2-0.3-3.9-1-5.4c-0.7-1.6-2.1-2.8-4.1-3.8c-1.4-0.7-3.3-1.4-5.8-2.1c-2.5-0.7-4.6-1.1-6.2-1.2v-6.4
		h54.2v6.4c-1.7,0.1-3.9,0.4-6.6,0.9c-2.7,0.5-4.6,1-5.8,1.4c-2.1,0.7-3.5,2-4.2,3.7c-0.8,1.8-1.1,3.6-1.1,5.6v86.2
		c0,4,0.2,7.1,0.6,9.3c0.4,2.2,1.3,3.9,2.8,5.1c1.4,1.1,3.5,1.8,6.2,2.1c2.7,0.3,6.6,0.5,11.5,0.5c2.2,0,4.6-0.1,7-0.2
		c2.4-0.1,4.7-0.4,6.9-0.7c2.1-0.4,4.1-0.9,5.8-1.5c1.8-0.6,3.1-1.4,3.9-2.4c2.5-2.8,5.4-7,8.6-12.6c3.3-5.6,5.6-10.2,6.8-13.7
		H2157.6z"/>
	<path d="M2335.4,2329.3c-1.4,0.2-3.4,0.5-5.8,0.9c-2.4,0.4-4.4,1-5.9,1.7c-1.8,0.9-3.1,2.2-3.8,3.8c-0.8,1.7-1.1,3.6-1.1,5.8v10
		c0,7.2,0,12.1,0.1,14.7c0.1,2.5,0.2,4.6,0.3,6.2c-8,3.6-16,6.4-24,8.3c-8,1.9-15.8,2.9-23.4,2.9c-8.2,0-16.1-1.5-23.7-4.6
		c-7.6-3.1-14.2-7.5-19.9-13.1c-5.7-5.7-10.3-12.7-13.7-20.9s-5.1-17.4-5.1-27.5c0-9.8,1.6-18.9,4.8-27.2
		c3.2-8.4,7.8-15.6,13.7-21.8c5.7-6,12.6-10.7,20.5-14.1c7.9-3.4,16.4-5,25.5-5c7.2,0,13.5,0.9,18.9,2.6c5.4,1.8,10.1,3.9,14.2,6.3
		l3.7-6.2h7.2l0.8,44.9h-7.4c-1.3-4.9-2.8-9.8-4.7-14.6c-1.9-4.8-4.3-9.1-7.2-12.9c-3-3.8-6.6-6.8-10.8-9.1
		c-4.3-2.3-9.3-3.4-15.3-3.4c-6.5,0-12.2,1.3-17.3,3.9c-5.1,2.6-9.5,6.5-13.2,11.7c-3.7,5-6.5,11.3-8.5,18.7c-2,7.5-3,15.9-3,25.1
		c0,8.2,1,15.8,2.9,23.1s4.8,13.5,8.6,18.7c3.7,5.4,8.4,9.6,14,12.7c5.6,3.1,12,4.6,19.1,4.6c5.3,0,10.2-0.8,14.5-2.4
		c4.4-1.6,7.5-3.3,9.3-5.2c0.5-3.1,0.7-6.3,0.8-9.5c0-3.2,0-5.9,0-8.1v-7.1c0-2.5-0.3-4.8-1-6.7c-0.7-2-2.1-3.4-4.3-4.3
		c-2-0.9-4.7-1.6-8.1-2c-3.4-0.5-6.1-0.7-8-0.9v-6.6h56.3V2329.3z"/>
	<path d="M2470.6,2380.5H2436c-7.7-12-14.6-22.4-20.8-31.1c-6.2-8.7-12.9-17.8-20.1-27.1H2382v40.7c0,2.1,0.3,4,1,5.6
		c0.7,1.6,2.1,2.8,4.3,3.7c1.1,0.4,3,0.8,5.7,1.2c2.7,0.4,5,0.6,6.9,0.6v6.4h-54.3v-6.4c1.4-0.1,3.5-0.3,6.3-0.6
		c2.7-0.3,4.7-0.7,5.7-1.2c1.8-0.8,3.1-1.9,3.9-3.4c0.8-1.5,1.2-3.4,1.2-5.8v-92.9c0-2.1-0.3-4-0.9-5.6c-0.6-1.6-2-2.9-4.3-3.7
		c-1.5-0.5-3.5-1-5.9-1.5c-2.4-0.5-4.5-0.7-6.2-0.9v-6.4h59.3c5.4,0,10.5,0.6,15.3,1.7c4.8,1.1,9.1,2.9,12.9,5.4
		c3.7,2.4,6.7,5.6,9,9.5c2.2,3.9,3.3,8.6,3.3,14.1c0,4.9-0.8,9.3-2.3,13.1c-1.5,3.8-3.7,7.1-6.7,9.9c-2.7,2.6-6,4.8-9.8,6.7
		c-3.8,1.9-8,3.5-12.6,4.8c6.3,8.4,11.6,15.4,15.8,21.2c4.2,5.7,9.3,12.7,15.4,20.9c2.7,3.6,5.1,6.3,7.2,8c2.1,1.7,4.3,3.1,6.4,4.2
		c1.6,0.8,3.5,1.4,5.9,1.8c2.4,0.4,4.3,0.7,5.9,0.7V2380.5z M2423,2284.8c0-7.8-2.2-13.9-6.7-18.5c-4.5-4.5-10.8-6.8-18.9-6.8H2382
		v55h11.9c8.3,0,15.3-2.7,20.8-8C2420.2,2301.2,2423,2293.9,2423,2284.8z"/>
	<path d="M2579.3,2267.3c5.7,5.9,10.1,13,13.3,21.4c3.2,8.4,4.8,17.6,4.8,27.7c0,10.2-1.6,19.5-4.9,27.8
		c-3.3,8.3-7.8,15.4-13.6,21.3c-5.6,5.8-12.1,10.3-19.5,13.4c-7.4,3.1-15.3,4.7-23.7,4.7c-8.9,0-17.2-1.7-24.8-5
		c-7.6-3.3-14.1-8-19.5-14c-5.4-5.9-9.7-13-12.8-21.3c-3.1-8.4-4.7-17.3-4.7-26.8c0-10.4,1.6-19.7,4.9-27.9
		c3.3-8.2,7.8-15.2,13.5-21.2c5.7-5.9,12.3-10.4,19.8-13.6c7.5-3.1,15.4-4.7,23.6-4.7c8.5,0,16.5,1.6,24.1,4.8
		C2567.3,2257,2573.8,2261.5,2579.3,2267.3z M2565.8,2358.3c3.4-5.5,5.8-11.7,7.4-18.6c1.5-6.9,2.3-14.7,2.3-23.3
		c0-8.8-0.9-16.9-2.6-24.3c-1.7-7.4-4.2-13.6-7.6-18.8c-3.3-5.1-7.5-9.1-12.5-12c-5-2.9-10.7-4.3-17.2-4.3c-7.2,0-13.4,1.7-18.5,5
		c-5.1,3.3-9.2,7.8-12.4,13.3c-3,5.3-5.3,11.5-6.7,18.6c-1.5,7.1-2.2,14.6-2.2,22.4c0,8.7,0.8,16.5,2.4,23.5c1.6,7,4,13.2,7.4,18.6
		c3.3,5.3,7.4,9.5,12.3,12.4c4.9,3,10.9,4.5,17.7,4.5c6.5,0,12.3-1.5,17.5-4.5C2558.3,2368,2562.5,2363.7,2565.8,2358.3z"/>
	<path d="M2743.3,2258.5c-1.7,0.1-4.2,0.4-7.4,1.1c-3.3,0.7-5.9,1.7-8,3c-2.1,1.4-3.5,4.3-4.3,8.6c-0.8,4.3-1.2,9.7-1.2,15.9v55.8
		c0,7.1-1.5,13.3-4.4,18.6c-3,5.2-6.8,9.6-11.7,12.9c-4.8,3.3-9.8,5.6-15.1,7c-5.3,1.4-10.3,2.1-15.2,2.1c-7.7,0-14.6-1-20.6-3
		c-6-2-11.1-4.8-15.2-8.2c-4-3.4-7.1-7.4-9.1-11.8c-2.1-4.4-3.1-9.1-3.1-13.9v-75.9c0-2.1-0.3-3.9-1-5.3c-0.7-1.4-2.1-2.7-4.2-3.9
		c-1.5-0.8-3.4-1.5-5.8-2c-2.4-0.5-4.3-0.8-5.8-1v-6.4h53.5v6.4c-1.7,0.1-3.8,0.3-6.4,0.8c-2.6,0.5-4.5,0.9-5.7,1.4
		c-2.1,0.7-3.4,1.9-4.1,3.6c-0.7,1.7-1,3.5-1,5.5v70.9c0,3.4,0.4,7,1.1,10.8c0.8,3.8,2.2,7.3,4.5,10.5c2.4,3.3,5.6,6,9.6,8.1
		c4,2.1,9.6,3.2,16.7,3.2c6.6,0,12.2-1.1,16.7-3.2c4.5-2.1,8-4.9,10.6-8.3c2.5-3.3,4.2-6.7,5.2-10.2c1-3.6,1.5-7.1,1.5-10.8v-52.6
		c0-6.7-0.5-12.2-1.4-16.4c-1-4.3-2.4-7-4.3-8.4c-2.1-1.5-5-2.7-8.6-3.5c-3.7-0.8-6.4-1.3-8.4-1.4v-6.4h52.5V2258.5z"/>
	<path d="M2851.9,2283.7c0,6.7-1.3,12.6-3.9,17.8c-2.6,5.2-6.3,9.4-10.9,12.8c-4.6,3.4-9.6,5.9-15.1,7.4c-5.5,1.6-11.3,2.4-17.5,2.4
		h-14.4v38.9c0,2.1,0.3,4,1,5.6c0.7,1.6,2.1,2.8,4.3,3.7c1.1,0.4,3,0.8,5.7,1.2c2.7,0.4,5.3,0.6,7.6,0.6v6.4h-55.1v-6.4
		c1.4-0.1,3.5-0.3,6.3-0.6c2.7-0.3,4.7-0.7,5.7-1.2c1.8-0.8,3.1-1.9,3.9-3.4c0.8-1.5,1.2-3.4,1.2-5.8v-92.7c0-2.1-0.3-4-0.9-5.7
		c-0.6-1.7-2-3-4.3-3.8c-2.3-0.8-4.6-1.3-6.8-1.7c-2.3-0.3-4.2-0.6-5.8-0.7v-6.4h58.6c11.9,0,21.6,2.9,29.1,8.6
		C2848.2,2266.5,2851.9,2274.1,2851.9,2283.7z M2824.4,2305.6c2-2.9,3.4-5.9,4.1-9c0.7-3.1,1-5.9,1-8.4c0-3.4-0.4-6.9-1.2-10.5
		c-0.8-3.6-2.2-6.7-4.2-9.3c-2.1-2.8-4.9-5-8.3-6.6c-3.4-1.6-7.7-2.4-12.9-2.4h-12.8v56.7h9.2c6.5,0,11.8-1,15.9-3
		C2819.3,2311.2,2822.4,2308.7,2824.4,2305.6z"/>
</g>
<line class="st1" x1="368.9" y1="2322.6" x2="689.4" y2="2322.6"/>
<line class="st1" x1="2908.9" y1="2326.6" x2="3229.4" y2="2326.6"/>
</svg>
